<svg xmlns="http://www.w3.org/2000/svg" width="6.992" height="19.012" viewBox="0 0 6.992 19.012">
  <path id="Эллипс_7_копия_2" data-name="Эллипс 7 копия 2" d="M1110.072,70.706c-.113.317-2.017-.325-2.089,0a17.107,17.107,0,0,0,0,7.587c.072.325,1.976-.316,2.089,0a9.862,9.862,0,0,0,1.915,3.961s-2.522,2.256-4.16,1.647c-2.124-.712-3-5.121-2.806-9.4-.195-4.282.682-8.691,2.806-9.4,1.638-.609,4.16,1.647,4.16,1.647A9.863,9.863,0,0,0,1110.072,70.706Z" transform="translate(-1104.995 -64.994)" fill="#4d4d4d"/>
</svg>
